<svg width="24" height="25" viewBox="0 0 24 25" fill="none" xmlns="http://www.w3.org/2000/svg">
<path d="M19.4198 8.17948C18.3886 6.08306 16.1252 5.04733 13.9119 5.68844C13.3837 5.86109 12.931 6.08306 12.5034 6.30504C12.3776 6.37903 12.2519 6.42836 12.1261 6.50235C12.0758 6.52701 12.0507 6.52701 12.0255 6.52701H11.9752C11.9752 6.52701 11.9249 6.52701 11.8746 6.50235C11.7489 6.42836 11.6231 6.37903 11.4974 6.30504C11.0698 6.08306 10.5919 5.83643 10.0889 5.68844C7.87559 5.04719 5.612 6.08306 4.58094 8.17948C2.92097 11.5831 4.85761 15.3074 9.88768 18.4148C10.0637 18.5135 10.2398 18.6121 10.3907 18.7354C10.6925 18.9081 10.9692 19.0807 11.2207 19.2534C11.4471 19.4013 11.6734 19.5 11.9501 19.5H12.0004C12.277 19.5 12.5034 19.4013 12.7298 19.2534L13.5597 18.7354C13.7358 18.6368 13.9119 18.5381 14.0628 18.4148C19.1433 15.3072 21.0795 11.5828 19.4198 8.17948Z" fill="white"/>
</svg>
