<svg width="25" height="24" viewBox="0 0 25 24" fill="none" xmlns="http://www.w3.org/2000/svg">
<g clip-path="url(#clip0_647_34492)">
<circle cx="12.5" cy="6" r="3" stroke="white" stroke-width="2"/>
<path fill-rule="evenodd" clip-rule="evenodd" d="M8.5 12H16.5V14H8.5C6.29086 14 4.5 15.7909 4.5 18V19V20L4.5 22C3.39543 22 2.5 21.1046 2.5 20V18C2.5 14.6863 5.18629 12 8.5 12Z" fill="white"/>
<path fill-rule="evenodd" clip-rule="evenodd" d="M20.5 13C20.5 12.4477 20.0523 12 19.5 12C18.9477 12 18.5 12.4477 18.5 13V16H15.5C14.9477 16 14.5 16.4477 14.5 17C14.5 17.5523 14.9477 18 15.5 18H18.5V21C18.5 21.5523 18.9477 22 19.5 22C20.0523 22 20.5 21.5523 20.5 21V18H23.5C24.0523 18 24.5 17.5523 24.5 17C24.5 16.4477 24.0523 16 23.5 16H20.5V13Z" fill="white"/>
</g>
<defs>
<clipPath id="clip0_647_34492">
<rect width="24" height="24" fill="white" transform="translate(0.5)"/>
</clipPath>
</defs>
</svg>
