<svg width="24" height="24" viewBox="0 0 24 24" fill="none" xmlns="http://www.w3.org/2000/svg">
<path d="M22 15.78C22 16.37 21.77 16.93 21.35 17.35C20.93 17.77 20.37 18 19.78 18H6.44H2L2 4.22C2 3.63 2.23 3.07 2.65 2.65C3.07 2.23 3.63 2 4.22 2H19.78C20.37 2 20.93 2.23 21.35 2.65C21.77 3.07 22 3.63 22 4.22V15.78Z" fill="white"/>
<path d="M2 15C2 14.4477 2.44772 14 3 14H8.58579C9.47669 14 9.92286 15.0771 9.29289 15.7071L6.5 18.5L3.70711 21.2929C3.07714 21.9229 2 21.4767 2 20.5858V15Z" fill="white"/>
</svg>
