<svg width="12" height="13" viewBox="0 0 12 13" fill="none" xmlns="http://www.w3.org/2000/svg">
<path fill-rule="evenodd" clip-rule="evenodd" d="M6.00024 12.5C9.31395 12.5 12.0002 9.81371 12.0002 6.5C12.0002 3.18629 9.31395 0.5 6.00024 0.5C2.68654 0.5 0.000244141 3.18629 0.000244141 6.5C0.000244141 9.81371 2.68654 12.5 6.00024 12.5ZM5.50024 3C5.50024 2.72386 5.7241 2.5 6.00024 2.5C6.27639 2.5 6.50024 2.72386 6.50024 3V6H9.50024C9.77639 6 10.0002 6.22386 10.0002 6.5C10.0002 6.77614 9.77639 7 9.50024 7H6.50024V10C6.50024 10.2761 6.27639 10.5 6.00024 10.5C5.7241 10.5 5.50024 10.2761 5.50024 10V7H2.50024C2.2241 7 2.00024 6.77614 2.00024 6.5C2.00024 6.22386 2.2241 6 2.50024 6H5.50024V3Z" fill="white"/>
</svg>
