<svg width="24" height="24" viewBox="0 0 24 24" fill="none" xmlns="http://www.w3.org/2000/svg">
<path d="M12.7677 6.98093C12.9634 6.78527 13.2806 6.78527 13.4763 6.98093L17.0191 10.5237C17.2147 10.7194 17.2147 11.0366 17.0191 11.2323L8.98871 19.2627C8.91206 19.3393 8.81261 19.389 8.70529 19.4044L4.57202 19.9948C4.24136 20.0421 3.95793 19.7586 4.00517 19.428L4.59564 15.2947C4.61097 15.1874 4.66069 15.0879 4.73735 15.0113L12.7677 6.98093Z" fill="white"/>
<path d="M15.6019 4.14675C15.7976 3.95108 16.1148 3.95108 16.3104 4.14675L19.8533 7.68955C20.0489 7.88521 20.0489 8.20245 19.8533 8.39811L19.1447 9.10667C18.949 9.30234 18.6318 9.30234 18.4361 9.10667L14.8933 5.56387C14.6977 5.36821 14.6977 5.05097 14.8933 4.85531L15.6019 4.14675Z" fill="white"/>
</svg>
