<svg width="24" height="24" viewBox="0 0 24 24" fill="none" xmlns="http://www.w3.org/2000/svg">
<path d="M12 4C14.3417 4 16.4422 5.02 17.9095 6.62L15.5176 9L21.5477 9L21.5477 3L19.3367 5.2C17.5075 3.24 14.9045 2 12 2C6.78392 2 2.50251 5.95 2 11L4.03015 11C4.52261 7.06 7.90955 4 12 4ZM12 22C17.2161 22 21.4975 18.05 22 13L19.9698 13C19.4774 16.94 16.0905 20 12 20C9.65829 20 7.55779 18.98 6.09046 17.38L8.48241 15L2.45226 15L2.45226 21L4.66332 18.8C6.49246 20.76 9.09548 22 12 22Z" fill="white"/>
</svg>
