<svg width="48" height="48" viewBox="0 0 48 48" fill="none" xmlns="http://www.w3.org/2000/svg">
<g clip-path="url(#clip0_461_75833)">
<path d="M31.1401 24.9384C31.1801 24.6384 31.2001 24.3284 31.2001 23.9984C31.2001 23.6784 31.1801 23.3584 31.1301 23.0584L33.1601 21.4784C33.3401 21.3384 33.3901 21.0684 33.2801 20.8684L31.3601 17.5484C31.2401 17.3284 30.9901 17.2584 30.7701 17.3284L28.3801 18.2884C27.8801 17.9084 27.3501 17.5884 26.7601 17.3484L26.4001 14.8084C26.3601 14.5684 26.1601 14.3984 25.9201 14.3984H22.0801C21.8401 14.3984 21.6501 14.5684 21.6101 14.8084L21.2501 17.3484C20.6601 17.5884 20.1201 17.9184 19.6301 18.2884L17.2401 17.3284C17.0201 17.2484 16.7701 17.3284 16.6501 17.5484L14.7401 20.8684C14.6201 21.0784 14.6601 21.3384 14.8601 21.4784L16.8901 23.0584C16.8401 23.3584 16.8001 23.6884 16.8001 23.9984C16.8001 24.3084 16.8201 24.6384 16.8701 24.9384L14.8401 26.5184C14.6601 26.6584 14.6101 26.9284 14.7201 27.1284L16.6401 30.4484C16.7601 30.6684 17.0101 30.7384 17.2301 30.6684L19.6201 29.7084C20.1201 30.0884 20.6501 30.4084 21.2401 30.6484L21.6001 33.1884C21.6501 33.4284 21.8401 33.5984 22.0801 33.5984H25.9201C26.1601 33.5984 26.3601 33.4284 26.3901 33.1884L26.7501 30.6484C27.3401 30.4084 27.8801 30.0884 28.3701 29.7084L30.7601 30.6684C30.9801 30.7484 31.2301 30.6684 31.3501 30.4484L33.2701 27.1284C33.3901 26.9084 33.3401 26.6584 33.1501 26.5184L31.1401 24.9384ZM24.0001 27.5984C22.0201 27.5984 20.4001 25.9784 20.4001 23.9984C20.4001 22.0184 22.0201 20.3984 24.0001 20.3984C25.9801 20.3984 27.6001 22.0184 27.6001 23.9984C27.6001 25.9784 25.9801 27.5984 24.0001 27.5984Z" fill="white"/>
</g>
<defs>
<clipPath id="clip0_461_75833">
<rect width="24" height="24" fill="white" transform="translate(12 12)"/>
</clipPath>
</defs>
</svg>
