<svg width="48" height="48" viewBox="0 0 48 48" fill="none" xmlns="http://www.w3.org/2000/svg">
<path fill-rule="evenodd" clip-rule="evenodd" d="M28.9999 29V20C28.9999 17.2386 26.7614 15 23.9999 15C21.2385 15 18.9999 17.2386 18.9999 20V29H28.9999ZM16.9999 20V29L14.0002 30L13.9998 31H16.9999H18.9999H20.9999C20.9999 31 20.9999 31 20.9999 31.0001C20.9999 32.6569 22.3431 34.0001 23.9999 34.0001C25.6568 34.0001 26.9999 32.6569 26.9999 31.0001C26.9999 31 26.9999 31 26.9999 31H28.9999H30.9999H33.9998V30L30.9999 29V20C30.9999 16.134 27.8659 13 23.9999 13C20.134 13 16.9999 16.134 16.9999 20Z" fill="white"/>
<circle cx="32" cy="15" r="2" fill="#EA4335"/>
</svg>
