<svg width="24" height="24" viewBox="0 0 24 24" fill="none" xmlns="http://www.w3.org/2000/svg">
<path d="M5.0734 12.1078C2.03041 17.3006 6.17449 20.8663 8.6269 22C6.16446 19.9497 6.95026 17.1377 7.65096 15.988C7.89119 17.6743 9.66961 18.479 10.5288 18.6707C8.16646 14.5892 10.5788 10.6786 12.0803 9.23353C10.9993 11.0156 12.464 13.3772 13.3315 14.3353C15.0733 16.194 15.442 18.4631 15.4086 19.3653C16.6698 18.3305 16.5681 16.8263 16.3595 16.2036C18.1813 18.5988 16.5847 21.0659 15.5587 22C22.3454 17.7844 19.8713 12.1317 17.7859 9.83234C18.0862 11.8826 17.3605 13.3533 16.9601 13.8323C17.7609 7.87305 13.5234 3.46108 11.3046 2C11.5648 4.45269 10.1117 6.35928 9.35263 7.00599C6.10944 10.1485 5.41542 13.8723 5.47381 15.3413C4.81316 14.4024 4.9316 12.7944 5.0734 12.1078Z" fill="white" fill-opacity="0.2"/>
</svg>
