<svg width="24" height="24" viewBox="0 0 24 24" fill="none" xmlns="http://www.w3.org/2000/svg">
<circle cx="12" cy="6" r="3" fill="white" stroke="white" stroke-width="2"/>
<rect x="4" y="14" width="16" height="6" fill="white"/>
<path fill-rule="evenodd" clip-rule="evenodd" d="M16 12H8C4.68629 12 2 14.6863 2 18V20C2 21.1046 2.89543 22 4 22H16V20H4V18C4 15.7909 5.79086 14 8 14H16V12Z" fill="white"/>
<path fill-rule="evenodd" clip-rule="evenodd" d="M8 12H16C19.3137 12 22 14.6863 22 18V20C22 21.1046 21.1046 22 20 22H8V20H20V18C20 15.7909 18.2091 14 16 14H8V12Z" fill="white"/>
</svg>
