<svg width="24" height="25" viewBox="0 0 24 25" fill="none" xmlns="http://www.w3.org/2000/svg">
<path d="M19.4196 8.17948C18.3884 6.08306 16.125 5.04733 13.9117 5.68844C13.3835 5.86109 12.9308 6.08306 12.5033 6.30504C12.3775 6.37903 12.2518 6.42836 12.126 6.50235C12.0757 6.52701 12.0506 6.52701 12.0254 6.52701H11.9751C11.9751 6.52701 11.9248 6.52701 11.8745 6.50235C11.7487 6.42836 11.623 6.37903 11.4972 6.30504C11.0697 6.08306 10.5918 5.83643 10.0888 5.68844C7.87553 5.04719 5.61197 6.08306 4.58094 8.17948C2.92099 11.5831 4.85759 15.3074 9.88759 18.4148C10.0636 18.5135 10.2397 18.6121 10.3906 18.7354C10.6924 18.9081 10.9691 19.0807 11.2206 19.2534C11.4469 19.4013 11.6733 19.5 11.9499 19.5H12.0003C12.2769 19.5 12.5033 19.4013 12.7296 19.2534L13.5596 18.7354C13.7357 18.6368 13.9117 18.5381 14.0626 18.4148C19.1431 15.3072 21.0795 11.5828 19.4199 8.17948H19.4196ZM13.2325 17.0584C13.0816 17.1571 12.9055 17.2557 12.7295 17.3544C12.478 17.5024 12.2265 17.6504 11.975 17.823C11.7234 17.6504 11.4719 17.5024 11.2204 17.3544C11.0444 17.2557 10.8935 17.1571 10.7174 17.0584C8.70536 15.8252 4.22854 12.5451 6.01438 8.89487C6.5677 7.785 7.59888 7.11908 8.73066 7.11908C9.00732 7.11908 9.28397 7.16841 9.56063 7.2424C9.91274 7.34105 10.29 7.53836 10.6673 7.73567C10.8182 7.80967 10.9439 7.88366 11.0948 7.95765H11.12C11.3966 8.08097 11.6481 8.15496 11.9248 8.15496H11.9751C12.2266 8.15496 12.4781 8.08097 12.7799 7.95765H12.8051C12.956 7.88366 13.0817 7.80967 13.2326 7.73567C13.6099 7.53836 13.9872 7.34105 14.3393 7.2424C15.798 6.82312 17.282 7.48904 17.9357 8.87021C19.7214 12.5452 15.2445 15.8254 13.2326 17.0586L13.2325 17.0584Z" fill="white"/>
</svg>
